<svg version="1.1" id="alba_logo" xmlns="http://www.w3.org/2000/svg" xmlns:xlink="http://www.w3.org/1999/xlink" x="0px" y="0px"
	 viewBox="-58 322 494 150" style="enable-background:new -58 322 494 150;" xml:space="preserve">

<defs>
    <style type="text/css">
        .st0{
            fill: black;
            stroke-dasharray:  3000;
            stroke-dashoffset: 0;
            -webkit-animation: dash 8s linear forwards;
            -o-animation: dash 8s linear forwards;
            -moz-animation: dash 8s linear forwards;
            animation: dash 8s linear forwards;
        }

        #alba_logo{
            cursor: pointer;
        }

        #alba_logo:hover .st0{
            fill: #007788;
            transition: .8s;
        }

        #alba_logo.clickit .st0{
            fill: yellow;
            stroke: black;
        }

        @-webkit-keyframes dash{
            from {
                stroke-dashoffset:3000;
            }
            to{
                stroke-dashoffset:0;
            }
        }
    </style>

    <script>
        var clicker = document.querySelector('.st0');

        clicker.addEventListener('click', function(){

            this.classList.toggle('clickit');
        })
    </script>
</defs>

<g transform="translate(0.000000,150.000000) scale(0.100000,-0.100000)">
	<g>
		<path class="st0" d="M330.4-1980.9c210.2,0,237.4-6.6,259.6-48.1c6-13,10-196,10-520v-501h-95h-95v130v130H70h-340v-130v-130h-95
			h-95v311c0,343,5,384,62,492c72,134,229,238,393,260c17,2,142,5,278,6C293.5-1980.9,312.6-1980.9,330.4-1980.9 M-272-2590H69h341
			v205v205l-192-1c-106-1-210-5-231-10c-104-24-197-104-229-195c-9-27-20-84-24-126L-272-2590 M330.4-1930.9c-17.9,0-37,0-57.6-0.1
			c-118.4-0.9-260.6-3.6-283.7-6.3l-0.8-0.1c-181.2-24.3-350.1-136.5-430.4-285.9c-63.8-120.8-68-177.4-68-515.7v-311l50-50h95h95
			l50,50v130v80H70h290v-80v-130l50-50h95h95l50,50v501c0,509.3-8.4,527.6-14.6,541l-1.3,2.6C596-1934.1,535.3-1930.9,330.4-1930.9
			L330.4-1930.9z M-194.7-2402.2c26.8,75.6,106.1,142.4,192.9,162.5c13.5,2.8,92.7,7.5,220.2,8.7l141.5,0.7V-2385v-155H69h-287
			l1.8,23.7C-212.2-2475.4-201.8-2423.6-194.7-2402.2L-194.7-2402.2z"/>
	</g>
	<g>
		<path class="st0" d="M1020-1980v-435v-435h390h390v-100v-100h-450c-489,0-493,0-518,55c-9,19-12,157-12,514c0,268,3,491,7,494
			c3,4,48,7,100,7H1020 M1020-1930h-93c-26.5,0-52-0.8-71.8-2.1c-23.3-1.6-45.5-3.1-61.4-17.4c-17.5-14.8-18.1-31.6-19.6-76.6
			c-0.8-25.6-1.6-61.9-2.2-107.8c-1.3-92.7-2-216-2-347.1c0-475,5.7-511.7,16.6-535c20.7-45.3,44.8-68.4,125.1-76.8
			c67.9-7.2,191.6-7.2,438.2-7.2h450l50,50v100v100l-50,50h-390h-340v385v435L1020-1930L1020-1930z"/>
	</g>
	<g>
		<path class="st0" d="M2303.2-1982.8c24.9,0,50.6-0.1,76.8-0.2l365-2l52-29c65-36,101-89,114-167c12-73-3-174-36-246l-23-51l38-31
			c24-19,52-57,71-97c28-56,34-80,37-154c6-115-13-174-73-228c-23-22-60-45-81-51c-25-7-186-11-441-11h-403l-32,29l-33,29v469
			c0,435,1,471,18,496c10,16,28,32,40,37C2003.5-1985.6,2135.2-1982.8,2303.2-1982.8 M2130-2850l333,2l332,3l3,60c2,46-2,68-17,92
			c-41,66-49,67-326,73l-250,5l-3,97l-3,97l203,3c225,3,251,10,288,70c24,40,35,120,20,147c-10,21-17,21-295,21h-285v-335V-2850
			 M2303.2-1932.8c-302.9,0-319.5-6.9-329.4-11c-21.9-9.1-47.5-32-62.7-55.8c-15.9-23.8-21-49.9-23.5-119.8
			c-2.5-69.4-2.7-198.7-2.7-403.5v-469l17-37.6l32.7-28.8l31.7-28.7l33.6-13h403c408.6,0,443.1,9.7,454.5,12.9
			c29.3,8.4,72.7,35.1,101.5,62.5c71.5,64.7,95.7,137.1,89,267c-3.3,80-10.7,111-42,173.6c-22.2,46.5-54.5,90.1-84.6,114l-8,6.5
			l7.2,16c37.3,81.4,53.4,191.9,39.8,274.7c-15.5,93.1-61,159.4-139.1,202.6l-51.9,28.9l-24.1,6.3l-365,2
			C2353.9-1932.9,2328.1-1932.8,2303.2-1932.8L2303.2-1932.8z M2180-2230h235c135.4,0,219.4,0,251.9-3c1.2-22.2-6.1-66.3-19.6-89.1
			c-22-35.6-27.1-43-245.9-46l-203.1-3l-18.3-19.1V-2230L2180-2230z M2180-2799.7v158.4l24-23.7l250-5c127-2.8,203.7-4.4,241.7-12.8
			c22.6-5,25.3-8.3,42.8-36.6c7.2-11.5,11.3-21.4,9.5-63.4l-0.6-12.6l-284.9-2.6L2180-2799.7L2180-2799.7z"/>
	</g>
	<g>
		<path class="st0" d="M3875.9-1981.2c129.4,0,253.6-3.3,272.1-9.8c64-22,62-7,62-559v-500h-100h-100v130v130h-335h-335v-130v-130
			h-101h-101l5,318c4,345,7,363,66,481c68,133,209,234,364,260C3612-1984.5,3746.5-1981.2,3875.9-1981.2 M3337-2590h337h336v205v205
			l-187-1c-117,0-205-5-233-13c-158-43-237-143-248-312L3337-2590 M3875.9-1931.3c-41.5,0-251.5-0.5-311.1-10.4
			c-171.2-28.7-324.6-138.5-400.3-286.6c-65.6-131.3-67.5-160.4-71.5-503.2l-5-317.8l50-50.8h101h101l50,50v130v80h285h285v-80v-130
			l50-50h100h100l50,50v500l0,48.7c0,246.2,0,369.8-7.4,436.2c-9.1,80.9-34.3,103.2-83.8,119.9l-4.5,1.5
			C4140.8-1935.5,4043.7-1931.3,3875.9-1931.3L3875.9-1931.3z M3390.1-2540l1.8,31c9.6,147.2,74.7,229.6,211.2,266.7l0.6,0.2
			c13.4,3.8,76.5,11.1,219.3,11.1l137,0.7V-2385v-155h-286H3390.1L3390.1-2540z"/>
	</g>
</g>
</svg>


